<!DOCTYPE svg PUBLIC "-//W3C//DTD SVG 1.1//EN" "http://www.w3.org/Graphics/SVG/1.1/DTD/svg11.dtd">
<!-- Uploaded to: SVG Repo, www.svgrepo.com, Transformed by: SVG Repo Mixer Tools -->
<svg version="1.1" id="Layer_1" xmlns="http://www.w3.org/2000/svg" xmlns:xlink="http://www.w3.org/1999/xlink" viewBox="0 0 512 512" xml:space="preserve" width="800px" height="800px" fill="#000000">
<g id="SVGRepo_bgCarrier" stroke-width="0"/>
<g id="SVGRepo_tracerCarrier" stroke-linecap="round" stroke-linejoin="round"/>
<g id="SVGRepo_iconCarrier"> <g> <rect x="10.667" y="10.667" style="fill:#ABB8B9;" width="490.658" height="42.67"/> <g> <path style="fill:#f7f6f2;" d="M74.67,234.75c0-5.911-4.837-10.746-10.748-10.746H21.417c-5.912,0-10.745,4.836-10.745,10.746 v42.505c0,5.911,4.833,10.746,10.745,10.746h42.504c5.912,0,10.748-4.836,10.748-10.746V234.75z"/> <path style="fill:#f7f6f2;" d="M117.334,234.75v42.505c0,5.911,4.834,10.746,10.748,10.746h42.502 c5.913,0,10.748-4.836,10.748-10.746V234.75c0-5.911-4.836-10.746-10.748-10.746h-42.502 C122.168,224.003,117.334,228.838,117.334,234.75z"/> <path style="fill:#f7f6f2;" d="M223.999,234.75v42.505c0,5.911,4.834,10.746,10.746,10.746h42.504 c5.911,0,10.748-4.836,10.748-10.746V234.75c0-5.911-4.838-10.746-10.748-10.746h-42.503 C228.835,224.003,223.999,228.838,223.999,234.75z"/> <path style="fill:#f7f6f2;" d="M330.664,234.75v42.505c0,5.911,4.834,10.746,10.748,10.746h42.502 c5.913,0,10.748-4.836,10.748-10.746V234.75c0-5.911-4.836-10.746-10.748-10.746h-42.502 C335.498,224.003,330.664,228.838,330.664,234.75z"/> <path style="fill:#f7f6f2;" d="M437.329,234.75v42.505c0,5.911,4.834,10.746,10.747,10.746h42.503 c5.911,0,10.748-4.836,10.748-10.746V234.75c0-5.911-4.838-10.746-10.748-10.746h-42.503 C442.164,224.003,437.329,228.838,437.329,234.75z"/> <path style="fill:#f7f6f2;" d="M437.247,330.668h-42.502c-5.914,0-10.748,4.836-10.748,10.746v42.505 c0,5.911,4.834,10.746,10.748,10.746h42.502c5.913,0,10.748-4.836,10.748-10.746v-42.505 C447.996,335.505,443.16,330.668,437.247,330.668z"/> <path style="fill:#f7f6f2;" d="M341.332,383.92v-42.505c0-5.911-4.838-10.746-10.748-10.746H288.08 c-5.912,0-10.748,4.836-10.748,10.746v42.505c0,5.911,4.837,10.746,10.748,10.746h42.503 C336.494,394.667,341.332,389.831,341.332,383.92z"/> <path style="fill:#f7f6f2;" d="M234.666,383.92v-42.505c0-5.911-4.838-10.746-10.748-10.746h-42.502 c-5.914,0-10.748,4.836-10.748,10.746v42.505c0,5.911,4.834,10.746,10.748,10.746h42.502 C229.828,394.667,234.666,389.831,234.666,383.92z"/> <path style="fill:#f7f6f2;" d="M128,383.92v-42.505c0-5.911-4.836-10.746-10.748-10.746H74.75 c-5.914,0-10.748,4.836-10.748,10.746v42.505c0,5.911,4.834,10.746,10.748,10.746h42.502C123.165,394.667,128,389.831,128,383.92z "/> <path style="fill:#f7f6f2;" d="M74.67,448.081c0-5.911-4.837-10.751-10.748-10.751H21.417c-5.912,0-10.745,4.84-10.745,10.751 v42.501c0,5.915,4.833,10.751,10.745,10.751h42.504c5.912,0,10.748-4.836,10.748-10.751V448.081z"/> <path style="fill:#f7f6f2;" d="M117.334,448.081v42.501c0,5.915,4.834,10.751,10.748,10.751h42.502 c5.913,0,10.748-4.836,10.748-10.751v-42.501c0-5.911-4.836-10.751-10.748-10.751h-42.502 C122.168,437.33,117.334,442.17,117.334,448.081z"/> <path style="fill:#f7f6f2;" d="M223.999,448.081v42.501c0,5.915,4.834,10.751,10.746,10.751h42.504 c5.911,0,10.748-4.836,10.748-10.751v-42.501c0-5.911-4.838-10.751-10.748-10.751h-42.503 C228.835,437.33,223.999,442.17,223.999,448.081z"/> <path style="fill:#f7f6f2;" d="M330.664,448.081v42.501c0,5.915,4.834,10.751,10.748,10.751h42.502 c5.913,0,10.748-4.836,10.748-10.751v-42.501c0-5.911-4.836-10.751-10.748-10.751h-42.502 C335.498,437.33,330.664,442.17,330.664,448.081z"/> <path style="fill:#f7f6f2;" d="M437.329,448.081v42.501c0,5.915,4.834,10.751,10.747,10.751h42.503 c5.911,0,10.748-4.836,10.748-10.751v-42.501c0-5.911-4.838-10.751-10.748-10.751h-42.503 C442.164,437.33,437.329,442.17,437.329,448.081z"/> </g> </g> <g> <path style="fill:#000003;" d="M63.921,213.335H21.417c-11.808,0-21.413,9.607-21.413,21.414v42.505 c0,11.807,9.605,21.414,21.413,21.414h42.504c11.809,0,21.416-9.607,21.416-21.414v-42.505 C85.337,222.942,75.73,213.335,63.921,213.335z M63.931,277.331c0,0-0.003,0.002-0.01,0.002H21.415 c-0.023-0.009-0.067-0.052-0.076-0.079l-0.002-42.507c0.011-0.025,0.054-0.068,0.08-0.077h42.507 c0.027,0.009,0.07,0.054,0.078,0.079l0.002,42.505C63.994,277.28,63.949,277.326,63.931,277.331z"/> <path style="fill:#000003;" d="M63.921,426.663H21.417c-11.808,0-21.413,9.609-21.413,21.418v42.501 C0.004,502.391,9.609,512,21.417,512h42.504c11.809,0,21.416-9.609,21.416-21.418v-42.501 C85.337,436.272,75.73,426.663,63.921,426.663z M63.931,490.663c0,0-0.003,0.002-0.01,0.002H21.416 c-0.025-0.009-0.068-0.054-0.077-0.083l-0.002-42.505c0.011-0.025,0.055-0.07,0.08-0.079l42.504-0.002 c0.027,0.011,0.073,0.057,0.081,0.085l0.001,42.505C63.994,490.611,63.949,490.657,63.931,490.663z"/> <path style="fill:#000003;" d="M170.585,213.335h-42.502c-11.808,0-21.416,9.607-21.416,21.414v42.505 c0,11.807,9.608,21.414,21.416,21.414h42.502c11.809,0,21.416-9.607,21.416-21.414v-42.505 C192,222.942,182.393,213.335,170.585,213.335z M170.595,277.331c0,0-0.004,0.002-0.011,0.002h-42.506 c-0.023-0.009-0.068-0.052-0.077-0.079L128,234.747c0.01-0.025,0.053-0.068,0.082-0.077h42.506 c0.025,0.009,0.068,0.052,0.077,0.079l0.002,42.507C170.657,277.282,170.613,277.326,170.595,277.331z"/> <path style="fill:#000003;" d="M170.585,426.663h-42.502c-11.808,0-21.416,9.609-21.416,21.418v42.501 c0,11.809,9.608,21.418,21.416,21.418h42.502c11.809,0,21.416-9.609,21.416-21.418v-42.501 C192,436.272,182.393,426.663,170.585,426.663z M170.595,490.663c0,0-0.004,0.002-0.011,0.002h-42.505 c-0.025-0.009-0.069-0.054-0.078-0.083L128,448.079c0.01-0.027,0.054-0.073,0.082-0.081l42.504-0.002 c0.025,0.011,0.07,0.057,0.079,0.085l0.001,42.505C170.657,490.611,170.613,490.657,170.595,490.663z"/> <path style="fill:#000003;" d="M277.25,213.335h-42.503c-11.808,0-21.414,9.607-21.414,21.414v42.505 c0,11.807,9.606,21.414,21.414,21.414h42.504c11.809,0,21.416-9.607,21.416-21.414v-42.505 C298.666,222.942,289.06,213.335,277.25,213.335z M277.259,277.331c0,0-0.002,0.002-0.009,0.002h-42.506 c-0.025-0.009-0.068-0.052-0.077-0.079l-0.001-42.507c0.01-0.025,0.053-0.068,0.08-0.077h42.507 c0.025,0.009,0.069,0.054,0.078,0.079l0.002,42.505C277.324,277.28,277.279,277.326,277.259,277.331z"/> <path style="fill:#000003;" d="M277.25,426.663h-42.503c-11.808,0-21.414,9.609-21.414,21.418v42.501 c0,11.809,9.606,21.418,21.414,21.418h42.504c11.809,0,21.416-9.609,21.416-21.418v-42.501 C298.666,436.272,289.06,426.663,277.25,426.663z M277.259,490.663c0,0-0.002,0.002-0.009,0.002h-42.505 c-0.025-0.009-0.069-0.054-0.078-0.083l-0.001-42.505c0.01-0.025,0.054-0.07,0.08-0.079l42.504-0.002 c0.027,0.011,0.073,0.057,0.081,0.085l0.001,42.505C277.324,490.611,277.279,490.657,277.259,490.663z"/> <path style="fill:#000003;" d="M53.334,341.415v42.504c0,11.807,9.608,21.414,21.416,21.414h42.502 c11.809,0,21.416-9.607,21.416-21.414v-42.505c0-11.807-9.607-21.414-21.416-21.414H74.75 C62.942,320.001,53.334,329.608,53.334,341.415z M117.256,341.335c0.025,0.009,0.068,0.052,0.077,0.079l0.002,42.507 c-0.011,0.025-0.054,0.068-0.073,0.075c0,0-0.004,0.002-0.011,0.002H74.745c-0.023-0.009-0.068-0.052-0.077-0.079l-0.001-42.507 c0.01-0.025,0.053-0.069,0.082-0.077L117.256,341.335L117.256,341.335z"/> <path style="fill:#000003;" d="M159.999,341.415v42.504c0,11.807,9.608,21.414,21.416,21.414h42.502 c11.809,0,21.416-9.607,21.416-21.414v-42.505c0-11.807-9.607-21.414-21.416-21.414h-42.502 C169.607,320.001,159.999,329.608,159.999,341.415z M223.92,341.335c0.025,0.009,0.069,0.054,0.078,0.079L224,383.92 c-0.011,0.025-0.055,0.07-0.075,0.077c0,0-0.002,0.002-0.009,0.002h-42.506c-0.025-0.009-0.068-0.052-0.077-0.079l-0.001-42.507 c0.01-0.025,0.053-0.069,0.082-0.077L223.92,341.335L223.92,341.335z"/> <path style="fill:#000003;" d="M266.663,341.415v42.504c0,11.807,9.608,21.414,21.416,21.414h42.504 c11.809,0,21.416-9.607,21.416-21.414v-42.505c0-11.807-9.607-21.414-21.416-21.414h-42.504 C276.271,320.001,266.663,329.608,266.663,341.415z M330.586,341.335c0.025,0.009,0.069,0.054,0.078,0.079l0.001,42.505 c-0.01,0.025-0.055,0.07-0.074,0.077c0,0-0.002,0.002-0.009,0.002h-42.507c-0.025-0.009-0.069-0.054-0.078-0.079l-0.001-42.505 c0.01-0.025,0.054-0.07,0.082-0.079H330.586z"/> <path style="fill:#000003;" d="M373.329,341.415v42.504c0,11.807,9.608,21.414,21.416,21.414h42.502 c11.808,0,21.416-9.607,21.416-21.414v-42.505c0-11.807-9.608-21.414-21.416-21.414h-42.502 C382.937,320.001,373.329,329.608,373.329,341.415z M437.251,341.335c0.025,0.009,0.068,0.052,0.077,0.079l0.001,42.507 c-0.01,0.025-0.054,0.068-0.073,0.075c0,0-0.003,0.002-0.01,0.002h-42.506c-0.025-0.009-0.069-0.052-0.077-0.079l-0.001-42.507 c0.01-0.025,0.053-0.069,0.082-0.077L437.251,341.335L437.251,341.335z"/> <path style="fill:#000003;" d="M383.914,213.335h-42.502c-11.808,0-21.416,9.607-21.416,21.414v42.505 c0,11.807,9.608,21.414,21.416,21.414h42.502c11.808,0,21.416-9.607,21.416-21.414v-42.505 C405.33,222.942,395.722,213.335,383.914,213.335z M383.923,277.331c0,0-0.003,0.002-0.01,0.002h-42.506 c-0.025-0.009-0.069-0.052-0.077-0.079l-0.001-42.507c0.01-0.025,0.053-0.068,0.082-0.077h42.506 c0.025,0.009,0.068,0.052,0.077,0.079l0.001,42.507C383.987,277.282,383.942,277.326,383.923,277.331z"/> <path style="fill:#000003;" d="M383.914,426.663h-42.502c-11.808,0-21.416,9.609-21.416,21.418v42.501 c0,11.809,9.608,21.418,21.416,21.418h42.502c11.808,0,21.416-9.609,21.416-21.418v-42.501 C405.33,436.272,395.722,426.663,383.914,426.663z M383.923,490.663c0,0-0.003,0.002-0.01,0.002h-42.505 c-0.026-0.009-0.07-0.054-0.078-0.083l-0.001-42.505c0.01-0.025,0.054-0.07,0.082-0.079l42.503-0.002 c0.026,0.011,0.071,0.057,0.08,0.085v42.505C383.987,490.611,383.942,490.657,383.923,490.663z"/> <path style="fill:#000003;" d="M490.58,213.335h-42.503c-11.808,0-21.415,9.607-21.415,21.414v42.505 c0,11.807,9.607,21.414,21.415,21.414h42.503c11.808,0,21.416-9.607,21.416-21.414v-42.505 C511.996,222.942,502.388,213.335,490.58,213.335z M490.588,277.331c0,0-0.002,0.002-0.009,0.002h-42.506 c-0.025-0.009-0.069-0.052-0.077-0.079l-0.001-42.507c0.01-0.025,0.053-0.068,0.081-0.077h42.505 c0.025,0.009,0.07,0.054,0.079,0.079l0.001,42.505C490.652,277.28,490.607,277.326,490.588,277.331z"/> <path style="fill:#000003;" d="M490.58,426.663h-42.503c-11.808,0-21.415,9.609-21.415,21.418v42.501 c0,11.809,9.607,21.418,21.415,21.418h42.503c11.808,0,21.416-9.609,21.416-21.418v-42.501 C511.996,436.272,502.388,426.663,490.58,426.663z M490.588,490.663c0,0-0.002,0.002-0.009,0.002h-42.506 c-0.025-0.009-0.069-0.054-0.077-0.083l-0.001-42.505c0.01-0.025,0.054-0.07,0.081-0.079l42.503-0.002 c0.026,0.011,0.073,0.057,0.081,0.085v42.505C490.652,490.611,490.607,490.657,490.588,490.663z"/> <path style="fill:#000003;" d="M501.33,0H10.67C4.778,0,0.002,4.777,0.002,10.667v42.67c0,5.892,4.776,10.667,10.667,10.667 h490.661c5.891,0,10.667-4.776,10.667-10.667v-42.67C511.998,4.777,507.221,0,501.33,0z M490.663,42.67H21.337V21.335h469.326 L490.663,42.67L490.663,42.67z"/> </g> </g>
</svg>